<svg width="24" height="24" viewBox="0 0 24 24" fill="none" xmlns="http://www.w3.org/2000/svg">
<path fill-rule="evenodd" clip-rule="evenodd" d="M2.82754 0.766415C3.09 0.504348 3.40516 0.301052 3.75213 0.17C4.0991 0.0389477 4.46997 -0.0168688 4.84014 0.00624949C5.21032 0.0293678 5.57136 0.130893 5.89933 0.304097C6.2273 0.477301 6.51472 0.718229 6.74254 1.01092L9.43504 4.46992C9.92854 5.10441 10.1025 5.93091 9.90754 6.71092L9.08704 9.99592C9.04461 10.1661 9.04691 10.3443 9.09369 10.5133C9.14047 10.6823 9.23016 10.8363 9.35404 10.9604L13.0395 14.6459C13.1638 14.77 13.3181 14.8599 13.4874 14.9067C13.6567 14.9535 13.8352 14.9556 14.0055 14.9129L17.289 14.0924C17.674 13.9962 18.0757 13.9887 18.464 14.0706C18.8522 14.1524 19.2167 14.3215 19.53 14.5649L22.989 17.2559C24.2325 18.2234 24.3465 20.0609 23.2335 21.1724L21.6825 22.7234C20.5725 23.8334 18.9135 24.3209 17.367 23.7764C13.4088 22.3837 9.81494 20.1177 6.85204 17.1464C3.88097 14.1839 1.61495 10.5906 0.222035 6.63292C-0.320965 5.08791 0.166535 3.42742 1.27654 2.31741L2.82754 0.766415ZM18.969 0.968915C19.0387 0.89907 19.1215 0.843656 19.2126 0.805846C19.3037 0.768037 19.4014 0.748574 19.5 0.748574C19.5987 0.748574 19.6964 0.768037 19.7875 0.805846C19.8786 0.843656 19.9614 0.89907 20.031 0.968915L23.781 4.71891C23.8509 4.78858 23.9063 4.87135 23.9441 4.96246C23.9819 5.05358 24.0014 5.15126 24.0014 5.24992C24.0014 5.34857 23.9819 5.44625 23.9441 5.53737C23.9063 5.62848 23.8509 5.71125 23.781 5.78092L20.031 9.53092C19.8902 9.67175 19.6992 9.75086 19.5 9.75086C19.3009 9.75086 19.1099 9.67175 18.969 9.53092C18.8282 9.39009 18.7491 9.19908 18.7491 8.99992C18.7491 8.80075 18.8282 8.60975 18.969 8.46891L21.4395 5.99992H14.25C14.0511 5.99992 13.8604 5.9209 13.7197 5.78024C13.5791 5.63959 13.5 5.44883 13.5 5.24992C13.5 5.051 13.5791 4.86024 13.7197 4.71959C13.8604 4.57893 14.0511 4.49992 14.25 4.49992H21.4395L18.969 2.03092C18.8992 1.96125 18.8438 1.87848 18.806 1.78737C18.7682 1.69625 18.7487 1.59857 18.7487 1.49992C18.7487 1.40126 18.7682 1.30358 18.806 1.21246C18.8438 1.12135 18.8992 1.03858 18.969 0.968915Z" fill="#33197C"/>
</svg>
